<svg width="124" height="63" viewBox="0 0 124 63" fill="none" xmlns="http://www.w3.org/2000/svg">
<path fill-rule="evenodd" clip-rule="evenodd" d="M61.4193 23.837C65.0523 23.837 68.0144 20.9724 68.1581 17.3847L77.7074 14.8409C77.8105 15.5831 77.8638 16.3411 77.8638 17.1115C77.8638 26.1683 70.5013 33.5102 61.4193 33.5102C52.3373 33.5102 44.9749 26.1683 44.9749 17.1115C44.9749 8.05481 52.3373 0.712891 61.4193 0.712891C62.2835 0.712891 63.1321 0.779363 63.9602 0.907461L59.301 10.7245C56.614 11.6102 54.6751 14.1351 54.6751 17.1115C54.6751 20.8259 57.6946 23.837 61.4193 23.837Z" fill="white"/>
<path d="M63.4805 10.7904L64.9714 1.2627L87.2081 2.40785L95.8197 4.44825L63.4805 10.7904Z" fill="white"/>
<path d="M74.8779 9.87402L67.3284 13.9966H88.8573L74.8779 9.87402Z" fill="white"/>
<path d="M9.27765 62.713C7.36321 62.713 5.70649 62.2958 4.30748 61.4613C2.90847 60.6023 1.8408 59.4364 1.10448 57.9638C0.368161 56.4912 0 54.8345 0 52.9938C0 51.0793 0.392705 49.3736 1.17811 47.8764C1.98807 46.3792 3.11709 45.2134 4.56519 44.3789C6.01329 43.5445 7.68229 43.1272 9.57218 43.1272C11.1921 43.1272 12.6279 43.4217 13.8797 44.0108C15.1559 44.5998 16.1745 45.4466 16.9354 46.5511C17.7208 47.631 18.1626 48.895 18.2608 50.343H12.2966C12.1738 49.8031 11.867 49.3613 11.3762 49.0177C10.8853 48.6495 10.2594 48.4655 9.49854 48.4655C8.78677 48.4655 8.17317 48.6495 7.65774 49.0177C7.14232 49.3613 6.74961 49.8767 6.47963 50.5639C6.20964 51.2266 6.07465 52.0243 6.07465 52.9569C6.07465 53.8896 6.20964 54.6873 6.47963 55.3499C6.77416 56.0126 7.16686 56.5158 7.65774 56.8594C8.17317 57.203 8.78677 57.3748 9.49854 57.3748C10.014 57.3748 10.468 57.2889 10.8607 57.1171C11.278 56.9207 11.6093 56.6507 11.8548 56.3071C12.1248 55.9635 12.2966 55.5708 12.3702 55.129H18.3344C18.1871 56.4544 17.7331 57.7061 16.9722 58.8842C16.2113 60.0378 15.1682 60.9704 13.8428 61.6822C12.542 62.3694 11.0203 62.713 9.27765 62.713Z" fill="white"/>
<path d="M17.8529 46.2933V43.7163H23.0072V48.5023H22.8599C22.8599 47.4714 23.0317 46.6001 23.3753 45.8884C23.7435 45.1766 24.2712 44.6367 24.9584 44.2685C25.6456 43.9003 26.4679 43.7163 27.4251 43.7163H30.5913V48.8704H26.6888C26.0261 48.8704 25.4738 48.9686 25.032 49.1649C24.5903 49.3613 24.2589 49.6681 24.038 50.0853C23.8417 50.5026 23.7435 51.0303 23.7435 51.6684V62.124H17.8529V46.2933Z" fill="white"/>
<path d="M38.9405 62.713C37.026 62.713 35.3202 62.3081 33.823 61.4981C32.3504 60.6882 31.1968 59.5469 30.3623 58.0743C29.5278 56.5771 29.1106 54.8591 29.1106 52.9201C29.1106 50.9812 29.5278 49.2754 30.3623 47.8028C31.1968 46.3056 32.3504 45.1521 33.823 44.3421C35.3202 43.5322 37.026 43.1272 38.9405 43.1272C40.8549 43.1272 42.5484 43.5322 44.0211 44.3421C45.5183 45.1521 46.6841 46.3056 47.5186 47.8028C48.3531 49.2754 48.7703 50.9812 48.7703 52.9201C48.7703 54.8591 48.3531 56.5771 47.5186 58.0743C46.6841 59.5469 45.5183 60.6882 44.0211 61.4981C42.5484 62.3081 40.8549 62.713 38.9405 62.713ZM38.9405 57.3748C39.6768 57.3748 40.3272 57.1907 40.8917 56.8226C41.4562 56.4544 41.898 55.939 42.2171 55.2763C42.5362 54.5891 42.6957 53.8037 42.6957 52.9201C42.6957 52.0366 42.5362 51.2634 42.2171 50.6007C41.898 49.9135 41.4562 49.3858 40.8917 49.0177C40.3272 48.6495 39.6768 48.4655 38.9405 48.4655C38.2041 48.4655 37.5537 48.6495 36.9892 49.0177C36.4247 49.3858 35.9829 49.9135 35.6638 50.6007C35.3448 51.2634 35.1852 52.0366 35.1852 52.9201C35.1852 53.8037 35.3448 54.5891 35.6638 55.2763C35.9829 55.939 36.4247 56.4544 36.9892 56.8226C37.5537 57.1907 38.2041 57.3748 38.9405 57.3748Z" fill="white"/>
<path d="M46.2919 43.7163H52.4034L55.6063 57.7429H54.5755L57.8153 43.7163H64.5895L67.8293 57.7429H66.7984L70.0014 43.7163H76.1129L70.9218 62.124H63.9268L60.6501 48.0237H61.7546L58.478 62.124H51.4829L46.2919 43.7163Z" fill="white"/>
<path d="M82.3745 62.124C81.1964 62.124 80.2392 61.9522 79.5028 61.6086C78.7665 61.2649 78.2143 60.725 77.8461 59.9887C77.478 59.2524 77.2939 58.2706 77.2939 57.0434V38.4517H83.1844V55.534C83.1844 56.0249 83.2949 56.393 83.5158 56.6385C83.7367 56.8594 84.1049 56.9698 84.6203 56.9698H88.5596V62.124H82.3745ZM72.8023 43.7163H88.5596V48.8704H72.8023V43.7163Z" fill="white"/>
<path d="M96.5927 62.713C94.7028 62.713 93.0461 62.3081 91.6225 61.4981C90.199 60.6636 89.0945 59.4978 88.3091 58.0007C87.5482 56.5035 87.1678 54.7732 87.1678 52.8097C87.1678 50.8707 87.5482 49.1772 88.3091 47.7291C89.0945 46.2565 90.1867 45.1275 91.5857 44.3421C93.0093 43.5322 94.6292 43.1272 96.4454 43.1272C99.3171 43.1272 101.575 43.9985 103.22 45.7411C104.864 47.4592 105.686 49.8154 105.686 52.8097C105.686 53.1778 105.674 53.5583 105.649 53.951C105.649 54.3191 105.625 54.6873 105.576 55.0554H89.8185V50.6376H99.7589C99.7589 49.754 99.4766 49.0545 98.9121 48.5391C98.3476 48.0237 97.5254 47.766 96.4454 47.766C95.6846 47.766 95.0341 47.901 94.4942 48.1709C93.9787 48.4164 93.586 48.7845 93.3161 49.2754C93.0461 49.7663 92.9111 50.343 92.9111 51.0057V54.3559C92.9111 55.1168 93.0461 55.7672 93.3161 56.3071C93.6106 56.8226 94.0278 57.2153 94.5678 57.4852C95.1323 57.7307 95.8195 57.8534 96.6295 57.8534C97.3167 57.8534 97.8935 57.7307 98.3599 57.4852C98.8262 57.2398 99.1453 56.933 99.3171 56.5648H105.392C105.024 57.8166 104.459 58.9088 103.698 59.8414C102.937 60.7495 101.956 61.4613 100.753 61.9767C99.5748 62.4676 98.188 62.713 96.5927 62.713Z" fill="white"/>
<path d="M114.057 62.713C112.142 62.713 110.486 62.2958 109.087 61.4613C107.688 60.6023 106.62 59.4364 105.884 57.9638C105.147 56.4912 104.779 54.8345 104.779 52.9938C104.779 51.0793 105.172 49.3736 105.957 47.8764C106.767 46.3792 107.896 45.2134 109.344 44.3789C110.792 43.5445 112.461 43.1272 114.351 43.1272C115.971 43.1272 117.407 43.4217 118.659 44.0108C119.935 44.5998 120.954 45.4466 121.714 46.5511C122.5 47.631 122.942 48.895 123.04 50.343H117.076C116.953 49.8031 116.646 49.3613 116.155 49.0177C115.664 48.6495 115.038 48.4655 114.278 48.4655C113.566 48.4655 112.952 48.6495 112.437 49.0177C111.921 49.3613 111.529 49.8767 111.259 50.5639C110.989 51.2266 110.854 52.0243 110.854 52.9569C110.854 53.8896 110.989 54.6873 111.259 55.3499C111.553 56.0126 111.946 56.5158 112.437 56.8594C112.952 57.203 113.566 57.3748 114.278 57.3748C114.793 57.3748 115.247 57.2889 115.64 57.1171C116.057 56.9207 116.388 56.6507 116.634 56.3071C116.904 55.9635 117.076 55.5708 117.149 55.129H123.113C122.966 56.4544 122.512 57.7061 121.751 58.8842C120.99 60.0378 119.947 60.9704 118.622 61.6822C117.321 62.3694 115.799 62.713 114.057 62.713Z" fill="white"/>
</svg>
