<svg width="191" height="69" viewBox="0 0 191 69" fill="none" xmlns="http://www.w3.org/2000/svg">
<path fill-rule="evenodd" clip-rule="evenodd" d="M62.1186 69V0.149048H65.3359V69H62.1186ZM115.52 7.70337C115.52 6.7868 115.548 5.99523 115.604 5.32864L115.352 4.87036L111.891 5.59944V6.05772C112.521 6.65487 112.835 7.55061 112.835 8.74491V16.9315C112.835 18.223 112.723 19.2298 112.5 19.9519V20.4102H115.898L115.877 19.9519C115.653 19.2298 115.541 18.223 115.541 16.9315V9.39067C115.527 9.18236 115.52 8.61993 115.52 7.70337ZM81.4645 19.9519C81.9959 16.7995 82.2616 13.1333 82.2616 8.95322C82.2616 7.84224 82.2336 6.94651 82.1777 6.26603V5.80775L85.6387 5.53695C85.7785 6.20354 86.0722 7.23814 86.5196 8.64076C86.9811 10.0434 88.0788 12.9528 89.8128 17.3689C90.9595 14.2165 91.8335 11.6612 92.4348 9.70313C93.0361 7.74502 93.3926 6.46045 93.5045 5.84941L97.0913 5.47446V5.93274C97.0773 6.22437 97.0704 6.81458 97.0704 7.70337C97.0704 8.57826 97.1473 10.1892 97.3011 12.5361C97.4689 14.8692 97.7416 17.3411 98.1191 19.9519V20.4102H94.6582V19.9519C94.7001 19.1326 94.7211 18.2091 94.7211 17.1814C94.7211 14.5984 94.5952 12.1681 94.3435 9.89061C92.6235 14.6678 91.4419 18.1605 90.7987 20.3686L88.2606 20.6185C88.2606 19.9658 87.0091 16.3551 84.506 9.78646C84.3522 12.2306 84.2753 14.2651 84.2753 15.8899C84.2753 17.5008 84.2962 18.8548 84.3382 19.9519V20.4102H81.4645V19.9519ZM106.666 16.244C106.163 16.0635 105.603 15.9732 104.988 15.9732C104.387 15.9732 103.925 16.0843 103.604 16.3065C103.394 16.5704 103.289 16.9176 103.289 17.3481C103.289 18.4313 103.765 18.9729 104.715 18.9729C105.499 18.9729 106.149 18.6535 106.666 18.0147V16.244ZM103.855 20.7852C102.974 20.7852 102.198 20.5213 101.527 19.9936C100.856 19.4659 100.52 18.7021 100.52 17.7022C100.52 15.7719 101.94 14.8067 104.778 14.8067L106.645 14.89V13.6193C106.645 12.8972 106.463 12.3139 106.1 11.8695C105.736 11.4252 105.177 11.203 104.422 11.203C104.254 11.203 104.037 11.2932 103.772 11.4738C103.506 11.6404 103.282 11.814 103.1 11.9945C102.527 12.5361 102.066 12.9805 101.716 13.3277C101.017 12.5084 100.639 11.6821 100.583 10.8488C102.373 10.2933 103.883 10.0156 105.114 10.0156C106.345 10.0156 107.372 10.3003 108.197 10.8697C109.022 11.439 109.435 12.3348 109.435 13.5569V16.8273C109.435 17.4522 109.54 18.0494 109.75 18.6188C109.959 19.1881 110.218 19.57 110.526 19.7645L110.568 20.2227L107.568 20.8477C107.344 20.431 107.135 19.8478 106.939 19.0979C106.575 19.4867 106.282 19.7784 106.058 19.9728C105.834 20.1533 105.52 20.3338 105.114 20.5144C104.722 20.6949 104.303 20.7852 103.855 20.7852ZM121.831 5.32864C121.775 5.99523 121.747 6.7868 121.747 7.70337C121.747 8.61993 121.754 9.18236 121.768 9.39067V16.9315C121.768 18.223 121.88 19.2298 122.104 19.9519L122.125 20.4102H118.727V19.9519C118.951 19.2298 119.062 18.223 119.062 16.9315V8.74491C119.062 7.55061 118.748 6.65487 118.119 6.05772V5.59944L121.579 4.87036L121.831 5.32864ZM125.604 19.3895C126.541 20.3338 127.821 20.806 129.443 20.806C131.079 20.806 132.435 20.2505 133.512 19.1395C134.589 18.0286 135.127 16.6954 135.127 15.14C135.127 13.5846 134.68 12.3487 133.785 11.4321C132.904 10.5016 131.624 10.0364 129.946 10.0364C128.282 10.0364 126.912 10.5919 125.835 11.7029C124.758 12.8 124.22 14.1193 124.22 15.6608C124.22 17.2023 124.681 18.4452 125.604 19.3895ZM131.519 12.5153C131.911 13.2652 132.107 14.3137 132.107 15.6608C132.107 16.2718 132.044 16.9106 131.918 17.5772C131.806 18.2299 131.631 18.716 131.393 19.0354C131.044 19.327 130.589 19.4728 130.03 19.4728C128.17 19.4728 127.24 18.0216 127.24 15.1192C127.24 14.522 127.31 13.904 127.45 13.2652C127.59 12.6264 127.772 12.1473 127.995 11.8279C128.345 11.5224 128.834 11.3696 129.464 11.3696C130.443 11.3696 131.128 11.7515 131.519 12.5153ZM141.575 20.4102H137.904V19.9519C138.142 19.202 138.261 18.2716 138.261 17.1606V14.0568C138.261 13.4458 138.142 12.8555 137.904 12.2862C137.68 11.7029 137.408 11.321 137.086 11.1405V10.6822L140.044 9.99477L140.253 10.2864C140.337 10.4114 140.463 10.6961 140.631 11.1405C141.54 10.3906 142.491 10.0156 143.484 10.0156C143.973 10.0156 144.428 10.1128 144.847 10.3072V10.4947C144.847 11.3696 144.672 12.2445 144.323 13.1194C143.582 12.6056 142.785 12.3487 141.932 12.3487C141.666 12.3487 141.344 12.3903 140.967 12.4736V16.5773C140.967 17.9105 141.169 19.0354 141.575 19.9519V20.4102ZM150.785 18.9312C149.359 18.9312 148.646 17.7161 148.646 15.2858C148.646 14.5081 148.765 13.7999 149.003 13.1611C149.24 12.5222 149.541 12.0362 149.905 11.7029C150.114 11.6612 150.352 11.6404 150.618 11.6404C151.652 11.6404 152.736 12.0709 153.869 12.9319C154.288 12.4875 154.736 11.8695 155.211 11.078C154.135 10.3697 152.848 10.0156 151.352 10.0156C149.856 10.0156 148.527 10.5433 147.366 11.5987C146.206 12.6403 145.626 13.9526 145.626 15.5358C145.626 17.105 146.08 18.3757 146.989 19.3478C147.912 20.3061 149.163 20.7852 150.744 20.7852C151.387 20.7852 152.163 20.5352 153.072 20.0353C153.995 19.5353 154.736 19.0284 155.295 18.5146L154.75 17.6605C153.114 18.5077 151.792 18.9312 150.785 18.9312ZM163.161 16.244C162.658 16.0635 162.098 15.9732 161.483 15.9732C160.882 15.9732 160.42 16.0843 160.098 16.3065C159.889 16.5704 159.784 16.9176 159.784 17.3481C159.784 18.4313 160.259 18.9729 161.21 18.9729C161.993 18.9729 162.644 18.6535 163.161 18.0147V16.244ZM160.35 20.7852C159.469 20.7852 158.693 20.5213 158.022 19.9936C157.351 19.4659 157.015 18.7021 157.015 17.7022C157.015 15.7719 158.434 14.8067 161.273 14.8067L163.14 14.89V13.6193C163.14 12.8972 162.958 12.3139 162.595 11.8695C162.231 11.4252 161.672 11.203 160.917 11.203C160.749 11.203 160.532 11.2932 160.266 11.4738C160.001 11.6404 159.777 11.814 159.595 11.9945C159.022 12.5361 158.56 12.9805 158.211 13.3277C157.511 12.5084 157.134 11.6821 157.078 10.8488C158.868 10.2933 160.378 10.0156 161.609 10.0156C162.839 10.0156 163.867 10.3003 164.692 10.8697C165.517 11.439 165.93 12.3348 165.93 13.5569V16.8273C165.93 17.4522 166.035 18.0494 166.244 18.6188C166.454 19.1881 166.713 19.57 167.02 19.7645L167.062 20.2227L164.063 20.8477C163.839 20.431 163.629 19.8478 163.434 19.0979C163.07 19.4867 162.776 19.7784 162.553 19.9728C162.329 20.1533 162.014 20.3338 161.609 20.5144C161.217 20.6949 160.798 20.7852 160.35 20.7852ZM109.334 40.9371C110.327 41.2843 111.138 41.4579 111.767 41.4579C112.396 41.4579 112.802 41.3885 112.984 41.2496C113.194 40.9858 113.389 40.458 113.571 39.6665C113.753 38.861 113.844 38.0694 113.844 37.2917C113.844 34.9448 113.27 33.7713 112.124 33.7713C111.383 33.7713 110.453 34.0977 109.334 34.7504V40.9371ZM109.334 29.251V33.313C110.271 32.5909 111.236 32.2298 112.229 32.2298C113.669 32.2298 114.802 32.702 115.627 33.6463C116.452 34.5768 116.864 35.7225 116.864 37.0834C116.864 38.7638 116.249 40.1733 115.018 41.3121C113.788 42.4509 112.327 43.0202 110.635 43.0202C109.544 43.0202 108.131 42.6939 106.397 42.0412V41.5829C106.551 41.1941 106.628 40.2775 106.628 38.8332V30.7508C106.628 29.6954 106.314 28.8691 105.684 28.272V27.8137L109.271 27.0846L109.439 27.5429C109.369 27.9178 109.334 28.4872 109.334 29.251ZM94.0709 36.1252V32.3965C94.0709 31.8965 94.0988 31.2022 94.1548 30.3134C94.2247 29.4107 94.3086 28.7997 94.4065 28.4803V28.0428H91.407V28.5011C91.6307 29.626 91.7426 31.3202 91.7426 33.5838C91.7426 35.8336 91.6936 37.4306 91.5958 38.3749C91.4979 39.3193 91.2671 40.0623 90.9036 40.6039C90.3302 40.9649 89.4493 41.1455 88.2606 41.1455C87.086 41.1455 86.212 40.833 85.6387 40.2081C85.387 39.9442 85.1702 39.5137 84.9884 38.9165C84.8206 38.3194 84.7367 37.3195 84.7367 35.9169V33.3547C84.7367 31.3688 84.8346 29.751 85.0304 28.5011V28.0428H81.4226V28.5011C81.6463 29.251 81.7582 30.6606 81.7582 32.7298V36.8543C81.7582 38.9513 82.2476 40.4789 83.2265 41.4371C84.2054 42.3814 85.7925 42.8536 87.988 42.8536C90.1834 42.8536 91.7426 42.3675 92.6655 41.3954C93.6024 40.4094 94.0709 38.6527 94.0709 36.1252ZM97.8581 42.6245H101.529V42.1662C101.123 41.2496 100.921 40.1247 100.921 38.7916V34.6879C101.298 34.6046 101.62 34.5629 101.885 34.5629C102.738 34.5629 103.535 34.8198 104.277 35.3336C104.626 34.4587 104.801 33.5838 104.801 32.7089V32.5215C104.382 32.327 103.927 32.2298 103.438 32.2298C102.445 32.2298 101.494 32.6048 100.585 33.3547C100.417 32.9103 100.291 32.6256 100.207 32.5006L99.9976 32.209L97.0401 32.8964V33.3547C97.3617 33.5352 97.6344 33.9171 97.8581 34.5004C98.0958 35.0698 98.2147 35.66 98.2147 36.271V39.3748C98.2147 40.4858 98.0958 41.4163 97.8581 42.1662V42.6245ZM123.198 38.1875C123.814 38.1875 124.373 38.2777 124.876 38.4583V40.2289C124.359 40.8677 123.709 41.1871 122.926 41.1871C121.975 41.1871 121.499 40.6455 121.499 39.5623C121.499 39.1318 121.604 38.7846 121.814 38.5208C122.136 38.2986 122.597 38.1875 123.198 38.1875ZM119.737 42.2078C120.409 42.7355 121.185 42.9994 122.066 42.9994C122.513 42.9994 122.933 42.9091 123.324 42.7286C123.73 42.5481 124.044 42.3675 124.268 42.187C124.492 41.9926 124.786 41.701 125.149 41.3121C125.345 42.062 125.555 42.6453 125.778 43.0619L128.778 42.437L128.736 41.9787C128.428 41.7843 128.17 41.4024 127.96 40.833C127.75 40.2636 127.645 39.6665 127.645 39.0415V35.7711C127.645 34.549 127.233 33.6533 126.408 33.0839C125.583 32.5145 124.555 32.2298 123.324 32.2298C122.094 32.2298 120.583 32.5076 118.794 33.0631C118.849 33.8963 119.227 34.7226 119.926 35.5419C120.276 35.1948 120.737 34.7504 121.311 34.2088C121.492 34.0282 121.716 33.8546 121.982 33.688C122.247 33.5075 122.464 33.4172 122.632 33.4172C123.387 33.4172 123.947 33.6394 124.31 34.0838C124.674 34.5282 124.855 35.1114 124.855 35.8336V37.1043L122.989 37.0209C120.15 37.0209 118.731 37.9861 118.731 39.9164C118.731 40.9163 119.066 41.6801 119.737 42.2078ZM137.771 32.2298C138.82 32.2298 139.631 32.5562 140.204 33.2089C140.778 33.8477 141.064 34.7781 141.064 36.0002V38.6457C141.064 40.0206 141.274 41.1941 141.694 42.1662V42.6245H138.002V42.1662C138.24 41.5135 138.359 40.5761 138.359 39.354V36.7501C138.359 35.9447 138.261 35.3545 138.065 34.9795C137.869 34.5907 137.45 34.3962 136.806 34.3962C136.163 34.3962 135.345 34.6879 134.352 35.2711V38.6874C134.352 40.1456 134.555 41.3052 134.961 42.1662V42.6245H131.29V42.1662C131.528 41.4579 131.646 40.4719 131.646 39.2082V36.4168C131.646 34.7643 131.227 33.7297 130.388 33.313V32.8548L133.786 32.209L134.017 32.6048C134.129 32.9381 134.205 33.3825 134.247 33.938C134.961 33.3686 135.576 32.945 136.093 32.6673C136.625 32.3756 137.184 32.2298 137.771 32.2298ZM45.1186 30.0263C45.1186 41.6571 35.69 51.0856 24.0593 51.0856C12.4286 51.0856 3 41.6571 3 30.0263C3 18.3956 12.4286 8.96704 24.0593 8.96704C35.69 8.96704 45.1186 18.3956 45.1186 30.0263ZM48.1186 30.0263C48.1186 43.3139 37.3469 54.0856 24.0593 54.0856C10.7717 54.0856 0 43.3139 0 30.0263C0 16.7388 10.7717 5.96704 24.0593 5.96704C37.3469 5.96704 48.1186 16.7388 48.1186 30.0263ZM15.4781 31.0597C15.4781 30.413 16.0024 29.8887 16.6492 29.8887H27.6017C28.2484 29.8887 28.7727 30.413 28.7727 31.0597C28.7727 31.7064 28.2484 32.2307 27.6017 32.2307H16.6492C16.0024 32.2307 15.4781 31.7064 15.4781 31.0597ZM30.5594 29.8887C29.9317 29.8887 29.4228 30.3975 29.4228 31.0253V31.0941C29.4228 31.7219 29.9317 32.2307 30.5594 32.2307C31.1871 32.2307 31.696 31.7219 31.696 31.0941V31.0253C31.696 30.3975 31.1871 29.8887 30.5594 29.8887ZM13.657 41.2717C13.0103 41.2717 12.486 40.7474 12.486 40.1007L12.486 22.0187C12.486 21.372 13.0103 20.8477 13.657 20.8477C14.3038 20.8477 14.8281 21.372 14.8281 22.0187V40.1007C14.8281 40.7474 14.3038 41.2717 13.657 41.2717ZM32.346 40.1007C32.346 40.7474 32.8703 41.2717 33.517 41.2717C34.1638 41.2717 34.6881 40.7474 34.6881 40.1007L34.6881 22.0187C34.6881 21.372 34.1638 20.8477 33.517 20.8477C32.8703 20.8477 32.346 21.372 32.346 22.0187V40.1007ZM142.357 49.7106C142.315 49.3495 142.231 49.1134 142.105 49.0023L141.875 48.8773H141.644C140.903 48.8773 140.155 49.0023 139.4 49.2523L139.211 49.4189V49.7522C139.211 49.905 139.239 50.1897 139.295 50.6063C139.365 51.0229 139.455 51.3215 139.567 51.502L139.798 51.6062C140.791 51.5367 141.595 51.4117 142.21 51.2312L142.399 51.0646C142.427 50.9118 142.441 50.7382 142.441 50.5438C142.441 50.3494 142.413 50.0716 142.357 49.7106ZM142.504 60.2093V55.7515C142.504 54.8211 142.546 54.1961 142.63 53.8767L142.378 53.4601L138.54 54.1684V54.6266C138.903 54.8211 139.204 55.1752 139.441 55.689C139.679 56.189 139.798 56.8208 139.798 57.5846V60.6676C139.798 61.8341 139.679 62.7715 139.441 63.4798V63.9381H143.112V63.4798C142.707 62.6188 142.504 61.5286 142.504 60.2093ZM85.5758 50.8771C85.8974 50.8493 86.3449 50.8354 86.9182 50.8354C88.8759 50.8354 90.1974 50.9326 90.8826 51.1271H91.2811L91.9104 49.2939L82.1567 49.3564V49.8147C82.3945 50.8146 82.5133 52.2172 82.5133 54.0225V59.2928C82.5133 61.0842 82.3945 62.4799 82.1567 63.4798V63.9381H92.204L92.6026 61.73H92.204C91.7146 61.9244 90.9455 62.0841 89.8967 62.2091C88.8479 62.3341 87.946 62.3966 87.1909 62.3966C86.4497 62.3966 85.9184 62.3827 85.5967 62.3549C85.5548 61.8966 85.5338 60.501 85.5338 58.1679V57.0639C85.7855 57.0361 86.4218 57.0222 87.4426 57.0222C88.4774 57.0222 89.2605 57.0778 89.7918 57.1889H90.1904L90.9245 55.4599L85.5338 55.564C85.5338 53.0782 85.5478 51.5159 85.5758 50.8771ZM100.107 63.9381H104.365V63.4798C104.17 63.3965 103.834 63.1187 103.359 62.6465C102.883 62.1744 102.408 61.6258 101.932 61.0009L100.128 58.647L101.639 56.2931C102.338 55.196 103.079 54.5225 103.862 54.2725V53.8142L100.254 53.7934V54.085C100.254 54.4739 100.016 55.0433 99.5411 55.7932L98.8279 56.8972L98.0937 55.9182C97.4225 55.071 97.0869 54.4669 97.0869 54.1059V53.8142H93.1645V54.2725C93.3742 54.3281 93.7238 54.6128 94.2133 55.1266C94.7027 55.6265 95.1572 56.1612 95.5767 56.7306L97.1498 58.8553L95.4089 61.5425C95.1012 62.0147 94.7307 62.4313 94.2972 62.7924C93.8637 63.1534 93.4931 63.3826 93.1855 63.4798V63.9381H96.8142V63.6256C96.8282 63.2368 97.0659 62.6952 97.5274 62.0008L98.4503 60.6051L99.3103 61.7508C99.8417 62.4452 100.107 63.0701 100.107 63.6256V63.9381ZM111.692 62.709C112.027 62.709 112.335 62.6743 112.615 62.6049C112.95 62.1883 113.202 61.5981 113.37 60.8343C113.537 60.0566 113.621 59.3553 113.621 58.7303C113.621 56.5361 113.041 55.4391 111.88 55.4391C111.041 55.4391 110.118 55.7515 109.112 56.3764V62.0633C110.021 62.4938 110.881 62.709 111.692 62.709ZM106.406 65.8128V57.6055C106.406 56.9944 106.308 56.4181 106.112 55.8765C105.93 55.321 105.686 54.9599 105.378 54.7933L105.336 54.335L108.755 53.5226L109.007 53.9184C108.979 54.1267 108.965 54.4669 108.965 54.9391C109.902 54.0087 110.881 53.5434 111.901 53.5434C113.314 53.5434 114.453 54.0087 115.32 54.9391C116.201 55.8696 116.642 57.0014 116.642 58.3345C116.642 59.9871 116.055 61.3967 114.88 62.5632C113.705 63.7298 112.37 64.313 110.874 64.313C110.272 64.313 109.685 64.2505 109.112 64.1255V64.688C109.112 66.3406 109.391 67.4793 109.951 68.1042V68.5625L106.322 69C106.378 68.2778 106.406 67.2155 106.406 65.8128ZM119.952 62.9798C120.917 63.8825 122.008 64.3338 123.224 64.3338C123.937 64.3338 124.686 64.1533 125.469 63.7922C126.266 63.4173 126.832 63.0979 127.168 62.834C127.503 62.5702 127.804 62.3133 128.07 62.0633L127.545 61.2717C126.063 62.0355 124.951 62.4174 124.21 62.4174C123.483 62.4174 122.854 62.1466 122.322 61.605C121.805 61.0634 121.539 60.2927 121.525 59.2928H127.273L128.07 58.4804C128.07 56.9389 127.734 55.7307 127.063 54.8558C126.392 53.9809 125.371 53.5434 124 53.5434C122.378 53.5434 121.057 54.1267 120.036 55.2932C119.015 56.4459 118.505 57.7929 118.505 59.3344C118.505 60.862 118.987 62.0772 119.952 62.9798ZM122.28 55.1891C122.588 54.9808 123.001 54.8766 123.518 54.8766C124.651 54.8766 125.217 55.8765 125.217 57.8763L121.546 58.0846C121.56 57.6402 121.63 57.1333 121.756 56.5639C121.882 55.9945 122.057 55.5363 122.28 55.1891ZM134.426 63.9381H130.755V63.4798C130.993 62.7299 131.112 61.7994 131.112 60.6884V57.5846C131.112 56.9736 130.993 56.3834 130.755 55.814C130.532 55.2307 130.259 54.8488 129.937 54.6683V54.21L132.895 53.5226L133.105 53.8142C133.188 53.9392 133.314 54.2239 133.482 54.6683C134.391 53.9184 135.342 53.5434 136.335 53.5434C136.824 53.5434 137.279 53.6406 137.698 53.8351V54.0225C137.698 54.8974 137.523 55.7724 137.174 56.6472C136.433 56.1334 135.636 55.8765 134.783 55.8765C134.517 55.8765 134.195 55.9182 133.818 56.0015V60.1052C133.818 61.4384 134.021 62.5632 134.426 63.4798V63.9381ZM149.792 64.3338C148.575 64.3338 147.485 63.8825 146.52 62.9798C145.555 62.0772 145.072 60.862 145.072 59.3344C145.072 57.7929 145.583 56.4459 146.604 55.2932C147.624 54.1267 148.946 53.5434 150.568 53.5434C151.938 53.5434 152.959 53.9809 153.63 54.8558C154.302 55.7307 154.637 56.9389 154.637 58.4804L153.84 59.2928H148.093C148.107 60.2927 148.373 61.0634 148.89 61.605C149.421 62.1466 150.051 62.4174 150.778 62.4174C151.519 62.4174 152.631 62.0355 154.113 61.2717L154.637 62.0633C154.372 62.3133 154.071 62.5702 153.735 62.834C153.4 63.0979 152.833 63.4173 152.036 63.7922C151.253 64.1533 150.505 64.3338 149.792 64.3338ZM150.086 54.8766C149.568 54.8766 149.156 54.9808 148.848 55.1891C148.624 55.5363 148.45 55.9945 148.324 56.5639C148.198 57.1333 148.128 57.6402 148.114 58.0846L151.785 57.8763C151.785 55.8765 151.218 54.8766 150.086 54.8766ZM166.322 54.5225C165.748 53.8698 164.937 53.5434 163.888 53.5434C163.301 53.5434 162.742 53.6893 162.21 53.9809C161.693 54.2586 161.078 54.6822 160.364 55.2516C160.322 54.6961 160.246 54.2517 160.134 53.9184L159.903 53.5226L156.505 54.1684V54.6266C157.344 55.0433 157.763 56.0779 157.763 57.7305V60.5218C157.763 61.7855 157.645 62.7715 157.407 63.4798V63.9381H161.078V63.4798C160.672 62.6188 160.469 61.4592 160.469 60.001V56.5848C161.462 56.0015 162.28 55.7099 162.923 55.7099C163.567 55.7099 163.986 55.9043 164.182 56.2931C164.378 56.6681 164.476 57.2583 164.476 58.0637V60.6676C164.476 61.8897 164.357 62.8271 164.119 63.4798V63.9381H167.811V63.4798C167.391 62.5077 167.182 61.3342 167.182 59.9594V57.3138C167.182 56.0918 166.895 55.1613 166.322 54.5225ZM172.899 58.8137C172.899 61.2439 173.612 62.4591 175.038 62.4591C176.045 62.4591 177.367 62.0355 179.003 61.1884L179.548 62.0424C178.989 62.5563 178.248 63.0632 177.325 63.5631C176.416 64.063 175.64 64.313 174.997 64.313C173.416 64.313 172.165 63.8339 171.242 62.8757C170.333 61.9036 169.878 60.6329 169.878 59.0636C169.878 57.4805 170.459 56.1681 171.619 55.1266C172.78 54.0712 174.109 53.5434 175.605 53.5434C177.101 53.5434 178.388 53.8976 179.464 54.6058C178.989 55.3974 178.541 56.0154 178.122 56.4598C176.989 55.5988 175.905 55.1682 174.871 55.1682C174.605 55.1682 174.367 55.1891 174.158 55.2307C173.794 55.564 173.493 56.0501 173.256 56.6889C173.018 57.3277 172.899 58.036 172.899 58.8137ZM182.694 62.9798C183.659 63.8825 184.75 64.3338 185.967 64.3338C186.68 64.3338 187.428 64.1533 188.211 63.7922C189.008 63.4173 189.574 63.0979 189.91 62.834C190.246 62.5702 190.546 62.3133 190.812 62.0633L190.288 61.2717C188.805 62.0355 187.694 62.4174 186.952 62.4174C186.225 62.4174 185.596 62.1466 185.065 61.605C184.547 61.0634 184.282 60.2927 184.268 59.2928H190.015L190.812 58.4804C190.812 56.9389 190.476 55.7307 189.805 54.8558C189.134 53.9809 188.113 53.5434 186.743 53.5434C185.121 53.5434 183.799 54.1267 182.778 55.2932C181.757 56.4459 181.247 57.7929 181.247 59.3344C181.247 60.862 181.73 62.0772 182.694 62.9798ZM185.023 55.1891C185.33 54.9808 185.743 54.8766 186.26 54.8766C187.393 54.8766 187.959 55.8765 187.959 57.8763L184.289 58.0846C184.303 57.6402 184.372 57.1333 184.498 56.5639C184.624 55.9945 184.799 55.5363 185.023 55.1891Z" fill="white"/>
</svg>

